<svg xmlns="http://www.w3.org/2000/svg" width="65" height="59" viewBox="0 0 65 59">
    <defs>
        <radialGradient id="a" r="69.339%" fx="50%" fy="50%">
            <stop offset="0%" stop-color="#FBF5EB"/>
            <stop offset="100%" stop-color="#C63200"/>
        </radialGradient>
    </defs>
    <g fill="none" fill-rule="evenodd">
        <g transform="translate(5 2)">
            <path fill="#C63200" d="M28.5 0C44.24 0 57 12.76 57 28.5S44.24 57 28.5 57 0 44.24 0 28.5 12.76 0 28.5 0zm0 .92C13.268.92.92 13.267.92 28.5c0 15.232 12.348 27.58 27.58 27.58 15.232 0 27.58-12.348 27.58-27.58C56.08 13.268 43.733.92 28.5.92z"/>
            <circle cx="28.5" cy="28.5" r="26.202" fill="url(#a)"/>
        </g>
        <path fill="#FFF" fill-rule="nonzero" d="M57.627 30.022c-.14-.155-2.188-2.41-5.329-4.193 1.828-3.115 2.475-6.091 2.518-6.296a1.465 1.465 0 0 0-.978-1.693c-.12-.039-2.986-.966-6.574-.966l-.136.002c.025-3.613-.903-6.516-.969-6.715a1.465 1.465 0 0 0-1.692-.977c-.205.043-3.181.69-6.296 2.518-1.783-3.14-4.038-5.189-4.194-5.329a1.465 1.465 0 0 0-1.954 0c-.156.14-2.41 2.188-4.194 5.328-3.114-1.827-6.091-2.474-6.296-2.517a1.465 1.465 0 0 0-1.692.977c-.066.2-.994 3.102-.969 6.715l-.136-.002c-3.587 0-6.454.927-6.574.966-.71.233-1.131.962-.978 1.693.043.205.69 3.181 2.517 6.296-3.14 1.783-5.188 4.038-5.327 4.194a1.464 1.464 0 0 0 0 1.954c.139.156 2.188 2.41 5.327 4.194-1.827 3.114-2.474 6.09-2.517 6.296-.153.73.268 1.46.977 1.692.12.04 2.987.966 6.576.966l.135-.001c-.025 3.612.903 6.516.969 6.715a1.465 1.465 0 0 0 1.692.977c.205-.043 3.182-.69 6.296-2.517 1.784 3.14 4.038 5.188 4.194 5.328a1.462 1.462 0 0 0 1.954 0c.156-.14 2.41-2.189 4.194-5.328 3.114 1.827 6.091 2.474 6.296 2.517a1.459 1.459 0 0 0 1.692-.977c.066-.2.994-3.103.968-6.715l.136.001c3.589 0 6.455-.926 6.575-.966.71-.232 1.13-.961.977-1.692-.042-.205-.69-3.182-2.517-6.296 3.14-1.784 5.189-4.038 5.328-4.194a1.465 1.465 0 0 0 0-1.955zM47.226 19.785c1.736 0 3.298.251 4.349.476-.353 1.091-.974 2.704-1.956 4.314a14.518 14.518 0 0 0-4.002-.895 14.311 14.311 0 0 0 1.222-3.89c.127-.003.256-.005.387-.005zm-7.171 20.344a15.947 15.947 0 0 0-.98-3.054c.956.412 1.98.755 3.055.98.22.296.425.605.612.929.528.914.887 1.892 1.122 2.88a10.683 10.683 0 0 1-2.88-1.123 9.782 9.782 0 0 1-.93-.612zm-2.616 2.707c0 1.036-.179 2.044-.471 3a10.56 10.56 0 0 1-1.947-2.368 9.534 9.534 0 0 1-.502-.977 15.33 15.33 0 0 0 .683-3.08c.626.82 1.346 1.615 2.172 2.334.041.36.065.723.065 1.09zm-8.407 3a10.263 10.263 0 0 1-.471-3c0-.368.024-.732.065-1.091a15.797 15.797 0 0 0 2.171-2.334c.122 1.016.338 2.055.684 3.08a9.646 9.646 0 0 1-.502.977 10.55 10.55 0 0 1-1.947 2.368zm-4.015-5.095c-.861.496-1.824.872-2.881 1.123a10.72 10.72 0 0 1 1.125-2.88c.187-.324.392-.634.611-.93a15.925 15.925 0 0 0 3.053-.98 15.971 15.971 0 0 0-.98 3.055c-.295.219-.604.424-.928.612zm.928-18.87a15.98 15.98 0 0 0 .98 3.054 15.964 15.964 0 0 0-3.055-.98 9.775 9.775 0 0 1-.612-.929 10.661 10.661 0 0 1-1.122-2.88 10.72 10.72 0 0 1 2.88 1.123c.324.188.633.393.93.612zm2.616-2.705c0-1.037.179-2.045.472-3.002a10.61 10.61 0 0 1 1.946 2.37c.188.319.355.645.502.977a15.343 15.343 0 0 0-.684 3.078 15.81 15.81 0 0 0-2.17-2.333 9.433 9.433 0 0 1-.066-1.09zm8.407-3.002c.292.956.471 1.964.471 3 0 .368-.024.732-.065 1.09a15.82 15.82 0 0 0-2.171 2.335 15.31 15.31 0 0 0-.684-3.08c.148-.332.314-.658.502-.977a10.55 10.55 0 0 1 1.947-2.368zm4.015 5.096a10.695 10.695 0 0 1 2.881-1.124 10.73 10.73 0 0 1-1.124 2.88 9.852 9.852 0 0 1-.612.93 15.9 15.9 0 0 0-3.053.98 15.96 15.96 0 0 0 .979-3.055 9.85 9.85 0 0 1 .929-.611zm-19.818 5.3c.367 0 .73.025 1.09.066a15.83 15.83 0 0 0 2.334 2.172c-1.089.129-2.116.358-3.08.683a9.614 9.614 0 0 1-.976-.503 10.547 10.547 0 0 1-2.37-1.948c.956-.291 1.964-.47 3.002-.47zm-.633 6.462c.311-.185.637-.352.976-.503.964.325 1.992.554 3.08.683a15.836 15.836 0 0 0-2.334 2.172 9.43 9.43 0 0 1-1.09.065c-1.037 0-2.044-.179-3-.471a10.558 10.558 0 0 1 2.368-1.946zm24.303 2.417c-.367 0-.73-.023-1.09-.065a15.806 15.806 0 0 0-2.334-2.172 15.221 15.221 0 0 0 3.08-.683c.339.15.664.319.976.503a10.539 10.539 0 0 1 2.37 1.948c-.956.292-1.964.47-3.002.47zm.631-6.46a9.603 9.603 0 0 1-.976.502 15.192 15.192 0 0 0-3.079-.683 15.835 15.835 0 0 0 2.334-2.172 9.414 9.414 0 0 1 1.09-.065c1.037 0 2.045.179 3.001.472a10.59 10.59 0 0 1-2.37 1.945zm-1.728-16.554c.242 1.127.513 2.844.473 4.737-1.41.237-2.712.645-3.894 1.221a14.536 14.536 0 0 0-.892-3.998c1.61-.981 3.222-1.605 4.313-1.96zm-10.68-2.92c.765.844 1.845 2.174 2.746 3.807a14.24 14.24 0 0 0-2.746 2.968 14.261 14.261 0 0 0-2.745-2.968c.9-1.633 1.981-2.964 2.745-3.807zm-10.798 2.92c1.092.353 2.705.974 4.315 1.955a14.51 14.51 0 0 0-.895 4.003c-1.181-.576-2.482-.983-3.891-1.22-.04-1.892.23-3.61.47-4.738zm-7.835 7.836a21.193 21.193 0 0 1 4.348-.476c.13 0 .26.002.388.005.22 1.301.604 2.624 1.222 3.892a14.52 14.52 0 0 0-3.999.893c-.98-1.61-1.604-3.223-1.959-4.314zm-2.92 10.68c.84-.764 2.17-1.845 3.803-2.745a14.249 14.249 0 0 0 2.972 2.748 14.244 14.244 0 0 0-2.967 2.743c-1.634-.9-2.966-1.981-3.808-2.745zm7.269 11.274a21.22 21.22 0 0 1-4.349-.475c.355-1.093.979-2.706 1.96-4.315 1.242.46 2.586.79 3.998.893a14.32 14.32 0 0 0-1.222 3.892 18.4 18.4 0 0 1-.387.005zm3.488 7.36c-.242-1.127-.513-2.843-.473-4.737 1.41-.237 2.712-.644 3.893-1.221.102 1.413.432 2.756.893 3.998-1.61.981-3.222 1.605-4.313 1.96zm10.68 2.92c-.765-.844-1.845-2.174-2.746-3.807a14.262 14.262 0 0 0 2.746-2.968 14.25 14.25 0 0 0 2.745 2.968c-.9 1.633-1.98 2.964-2.745 3.807zm10.799-2.92c-1.093-.355-2.706-.98-4.316-1.96.461-1.242.792-2.585.894-3.998 1.181.575 2.482.983 3.892 1.22.04 1.892-.23 3.609-.47 4.738zm7.834-7.834a21.113 21.113 0 0 1-4.35.474c-.129 0-.258-.002-.386-.005a14.32 14.32 0 0 0-1.222-3.892 14.529 14.529 0 0 0 3.998-.893c.981 1.61 1.605 3.225 1.96 4.316zm-.884-7.937a14.228 14.228 0 0 0-2.971-2.748 14.256 14.256 0 0 0 2.968-2.743c1.633.9 2.964 1.981 3.807 2.745-.841.765-2.17 1.846-3.804 2.746z" style="mix-blend-mode:soft-light"/>
        <path fill="#364652" d="M34.848 13.164c.246.088.4.202.46.342.592.092 1.013.282 1.262.57.249.288.402.668.46 1.14.535 1.368.765 2.317.688 2.85-.044.31-.049.709-.459 1.253-.195.258-.654.714-1.378 1.367v.456c.113.375.381.717.804 1.026.423.31.92.5 1.493.57l.459.114c.253.018.56.132.918.342.36.21.704.475 1.034.798.126.427.24.959.344 1.595.103.636.18 1.282.23 1.938.106 1.289.221 2.239.344 2.849a7 7 0 0 0 .574 1.71l1.608 1.025 1.148.684 1.148.456 1.301-.798h1.065l.236.342.828.684c0-.456.08-.684.237-.684.158 0 .237.494.237 1.482-.221.139-.576.29-1.065.456-.49.165-.923.278-1.301.342l-1.065-.114-.473-.342c-1.378-.38-2.68-.722-3.904-1.026-1.16-.288-1.837-1.026-2.181-1.482 0-.456-.306-1.595-.919-3.419l-.008-.16-.02.175c-.144 1.078-.431 1.452-.431 2.834 0 .893.268 2.109.804 3.647l.115.912c1.989-.871 3.328-1.365 4.018-1.481 1.536-.26 2.62.354 2.87.57.245.21.574.57.574 1.14 0 .569-.27 2.079-.574 2.62-.382.684-.88.912-1.492.684-.248.37-.784.713-1.608 1.026-.083.032-.344.105-.687.21l-.001.93h-.115a.464.464 0 0 1 0 .342.397.397 0 0 1-.23.228c-.424.02-.845.02-1.263 0a7.961 7.961 0 0 1-1.266-.165l.064.013c-.41.322-.815.656-.98.721-.27.108-.3-.325-.573-.341-.508-.03-1.123.31-1.608.341-.696.044-1.212-.221-1.492-.341a1.741 1.741 0 0 1-.285-.156c-1.338.21-2.66.338-3.964.384-1.981.069-1.722-.228-2.41-.228-.46 0-.92.076-1.378.228-.334.039-.525.039-.575 0-.05-.04-.087-.154-.114-.342-.153-.075-.23-.15-.23-.228 0-.078.077-.23.23-.456v-.342c-.083-.186.032-.338.344-.456.088-.033.192-.07.307-.108-.097 0-.16-.002-.192-.006-.567-.067-1.026-.257-1.378-.57-.577-.186-.998-.3-1.263-.342a3.385 3.385 0 0 0-.918 0c-.125-.528-.24-.946-.345-1.253-.184-.54-.75-1.006-.918-1.368-.344-.74-.23-1.113-.23-1.254 0-.213.288-.448.863-.704l-.77.134a8.08 8.08 0 0 1-1.543-.342c-.505-.164-.901-.354-1.187-.57-.163-.835-.163-1.253 0-1.253.136 0 .214.053.233.158l.005.07.593-.684.712-.228 1.029-.114 1.582.57v.01c.792.044 1.549-.15 2.272-.58.765-.456 1.34-1.026 1.722-1.71.107-.377.222-.87.345-1.481.123-.61.237-1.56.344-2.85.05-.883.126-1.643.23-2.279.155-.954.344-1.71.574-1.823l.689-.342c.304-.151.533-.227.686-.228l.003-.114h.459c.557-.217 1.016-.445 1.378-.684.36-.239.705-.543 1.033-.912l-.001-.456h-.114c-.453-.284-.76-.512-.918-.683-.43-.465-.64-1.01-.69-1.254-.076-.38-.076-1.14 0-2.28.37-1.095.753-1.893 1.149-2.393.594-.75 1.033-.912 1.378-1.026.344-.114.663-.017 1.033.114zm-4.593 16.498v.028c-.612 2.204-.956 3.533-1.033 3.99-.344.455-1.25.965-2.411 1.253-.76.189-1.765.179-2.526.456-.232.084-.505.255-.82.512l-.16.135-.139.124v.005l.775-.548c.959-.41 1.916-.41 2.87 0 .954.41 1.681.903 2.181 1.481l.46-.912c.767-1.95 1.15-3.317 1.148-4.102-.004-1.18-.229-1.638-.345-2.422zm-9.53 4.473h-.688l-.115.114a.998.998 0 0 0-.115.456c0 .153.038.343.115.57.23.076.383.038.46-.114.183-.243.318-.462.403-.657l.056-.141-.115-.228z"/>
    </g>
</svg>
