<?xml version="1.0" encoding="UTF-8"?>
<svg width="75px" height="65px" viewBox="0 0 496 496" version="1.1" xmlns="http://www.w3.org/2000/svg" xmlns:xlink="http://www.w3.org/1999/xlink">

    <defs>
        <radialGradient cx="50%" cy="50%" fx="50%" fy="50%" r="69.339136%" id="radialGradient-1">
            <stop stop-color="#FBF5EB" offset="0%"></stop>
            <stop stop-color="#C63200" offset="100%"></stop>
        </radialGradient>
    </defs>
    <g id="Page-1" stroke="none" stroke-width="1" fill="none" fill-rule="evenodd">
        <g id="Group-2">
            <g id="Group-Copy">
                <path d="M248,0 C384.966618,0 496,111.033382 496,248 C496,384.966618 384.966618,496 248,496 C111.033382,496 0,384.966618 0,248 C0,111.033382 111.033382,0 248,0 Z M248,8 C115.45166,8 8,115.45166 8,248 C8,380.54834 115.45166,488 248,488 C380.54834,488 488,380.54834 488,248 C488,115.45166 380.54834,8 248,8 Z" id="Combined-Shape" fill="#C63200"></path>
                <circle id="Oval" fill="url(#radialGradient-1)" cx="248" cy="248" r="228"></circle>
            </g>
            <path d="M455.80442,241.632102 C454.609291,240.299834 437.074213,221.001543 410.193624,205.735975 C425.838048,179.074293 431.376128,153.594672 431.741851,151.841172 C433.054533,145.588004 429.449556,139.347896 423.375953,137.352761 C422.347359,137.016428 397.811311,129.084864 367.097168,129.084864 C366.705322,129.084864 366.320007,129.097925 365.931428,129.10119 C366.153474,98.1749449 358.202279,73.322274 357.643899,71.6210197 C355.655284,65.547446 349.405352,61.9457513 343.158683,63.2551622 C341.405176,63.6241479 315.925433,69.1622022 289.263624,84.8065526 C273.997983,57.9293563 254.696335,40.3910958 253.364061,39.1959737 C248.60314,34.9346754 241.396451,34.9346754 236.635531,39.1959737 C235.303257,40.3910958 216.004874,57.9260911 200.735968,84.8032866 C174.077424,69.1622022 148.594416,63.6241479 146.844174,63.2551622 C140.58771,61.9457513 134.347573,65.547446 132.355693,71.6210197 C131.797313,73.322274 123.846118,98.1749449 124.068164,129.10119 C123.679584,129.097925 123.294269,129.084864 122.902424,129.084864 C92.1915465,129.084864 67.6522326,137.016428 66.6236392,137.352761 C60.5500358,139.344631 56.9450587,145.588004 58.257741,151.841172 C58.6234633,153.594672 64.161544,179.074293 79.8027029,205.735975 C52.9286445,221.001543 35.3903005,240.299834 34.1984378,241.635367 C29.9338541,246.396265 29.9338541,253.602919 34.1984378,258.363817 C35.3903005,259.696085 52.9286445,278.994375 79.8027029,294.263209 C64.161544,320.921626 58.6234633,346.401247 58.257741,348.154746 C56.9450587,354.41118 60.5467706,360.651288 66.6203732,362.643158 C67.6489674,362.979491 92.1850153,370.911055 122.905689,370.911055 C123.297534,370.911055 123.679584,370.897994 124.068164,370.897994 C123.846118,401.820974 131.797313,426.676911 132.355693,428.378164 C134.073282,433.61254 138.945225,437.011782 144.26126,437.011782 C145.113524,437.011782 145.978849,436.923617 146.844174,436.740757 C148.594416,436.375036 174.077424,430.836982 200.735968,415.195897 C216.004874,442.069828 235.303257,459.608088 236.635531,460.803211 C239.015991,462.932226 242.007077,464 244.998163,464 C247.992514,464 250.9836,462.932226 253.364061,460.803211 C254.696335,459.608088 273.994718,442.073094 289.263624,415.195897 C315.922168,430.836982 341.405176,436.375036 343.155418,436.740757 C344.020743,436.923617 344.886069,437.011782 345.738332,437.011782 C351.054367,437.011782 355.926311,433.61254 357.643899,428.378164 C358.202279,426.676911 366.153474,401.820974 365.928162,370.897994 C366.320007,370.901259 366.702057,370.911055 367.093903,370.911055 C397.811311,370.911055 422.347359,362.982756 423.375953,362.643158 C429.449556,360.651288 433.051268,354.41118 431.738585,348.154746 C431.372863,346.401247 425.834783,320.921626 410.193624,294.263209 C437.070947,278.994375 454.606026,259.696085 455.801154,258.363817 C460.065738,253.602919 460.065738,246.396265 455.80442,241.632102 Z M366.770955,154 C381.636205,154 395.008337,156.14996 404,158.073781 C400.984101,167.414308 395.664254,181.221902 387.262586,195 C376.616299,191.047482 365.106443,188.215828 353,187.340768 C358.286886,176.492645 361.573063,165.175859 363.458411,154.042606 C364.552705,154.019664 365.656886,154 366.770955,154 Z M305.387873,328.1431 C303.465997,318.934278 300.528417,310.17677 297,302 C305.182076,305.52756 313.945029,308.464427 323.156088,310.385836 C325.028174,312.921166 326.787403,315.566006 328.390625,318.340267 C332.908193,326.165277 335.985184,334.53452 338,343 C328.951586,340.842978 320.709764,337.633994 313.344236,333.379684 C310.569301,331.78017 307.923818,330.018049 305.387873,328.1431 Z M283,351.31573 C283,360.185751 281.469047,368.814545 278.962027,377 C272.59754,371.13229 266.848108,364.407243 262.298703,356.727062 C260.687526,354.001837 259.263538,351.204896 258,348.365576 C260.961626,339.58683 262.813478,330.69073 263.853055,322 C269.20805,329.018433 275.371975,335.821716 282.438428,341.979552 C282.796096,345.05684 283,348.169986 283,351.31573 Z M211.03463,377 C208.530954,368.8108 207,360.184755 207,351.314208 C207,348.168277 207.203905,345.051686 207.561572,341.977476 C214.628025,335.819276 220.788609,329.018849 226.143602,322 C227.186522,330.691245 229.035031,339.591133 232,348.370399 C230.733119,351.206627 229.309132,354.000474 227.697954,356.725861 C223.148549,364.406496 217.40246,371.131942 211.03463,377 Z M176.667665,333.378702 C169.294232,337.63198 161.051776,340.843503 152,343 C154.019982,334.546528 157.104684,326.179317 161.63223,318.339618 C163.230969,315.56603 164.992234,312.918514 166.866273,310.3838 C176.070625,308.462858 184.823882,305.530021 193,302 C189.470836,310.178103 186.538711,318.936802 184.614918,328.140072 C182.084136,330.017883 179.440579,331.776259 176.667665,333.378702 Z M184.611448,171.859016 C186.536799,181.063775 189.471298,189.823891 193,198 C184.820581,194.472726 176.056919,191.536096 166.845114,189.614843 C164.969557,187.079719 163.210186,184.435092 161.610153,181.661055 C157.0889,173.836679 154.011659,165.468113 152,157 C161.045827,159.160165 169.288317,162.36889 176.657761,166.619537 C179.43292,168.222241 182.078618,169.9809 184.611448,171.859016 Z M207,148.699686 C207,139.823568 208.534501,131.191836 211.041856,123 C217.397165,128.871794 223.140679,135.600569 227.700722,143.293856 C229.312116,146.017951 230.736293,148.813733 232,151.651875 C229.037978,160.426981 227.189222,169.316133 226.146162,178 C220.790452,170.987736 214.629045,164.190532 207.561647,158.035251 C207.203932,154.959239 207,151.847385 207,148.699686 Z M278.965909,123 C281.469252,131.186426 283,139.812982 283,148.684055 C283,151.830172 282.796123,154.946947 282.438503,158.02134 C275.372995,164.179905 269.213236,170.980735 263.855615,178 C262.816176,169.30824 260.964572,160.411085 258,151.631298 C259.266711,148.794902 260.690509,146.000889 262.301471,143.275341 C266.850267,135.59425 272.59893,128.868405 278.965909,123 Z M313.333657,166.624616 C320.704369,162.371339 328.947492,159.156497 338,157 C335.979855,165.456789 332.894903,173.824 328.370307,181.663699 C326.768123,184.437287 325.010032,187.081486 323.135842,189.6162 C313.930744,191.533824 305.17678,194.469979 297,198 C300.526133,189.821897 303.461812,181.066515 305.382444,171.859928 C307.916748,169.985434 310.560518,168.22706 313.333657,166.624616 Z M143.688389,212 C146.835901,212 149.947571,212.203822 153.0234,212.561347 C159.181576,219.628308 165.981635,225.789763 173,231.149292 C163.68128,232.25528 154.887144,234.213312 146.640402,237 C143.740521,235.703556 140.951422,234.270115 138.282879,232.689656 C130.596564,228.138734 123.871446,222.384924 118,216.012964 C126.178317,213.523657 134.803021,212 143.688389,212 Z M138.270535,267.307579 C140.940026,265.726908 143.730118,264.293276 146.63103,263 C154.880704,265.783719 163.677966,267.742012 173,268.851491 C165.979139,274.211736 159.173403,280.374015 153.013038,287.441919 C149.939374,287.799492 146.826598,288 143.677966,288 C134.808997,288 126.184485,286.469456 118,283.966448 C123.867014,277.603662 130.591265,271.855768 138.270535,267.307579 Z M346.308353,288 C343.1641,288 340.052429,287.799492 336.9766,287.438578 C330.818425,280.370672 324.018365,274.208394 317,268.851491 C326.31872,267.745355 335.116114,265.783719 343.362856,263 C346.262737,264.293276 349.048578,265.73025 351.717121,267.307579 C359.403436,271.859109 366.131813,277.613688 372,283.986499 C363.821683,286.479481 355.193721,288 346.308353,288 Z M351.710952,232.692997 C349.042883,234.270115 346.257537,235.706897 343.358171,237 C335.112895,234.213312 326.317064,232.25528 317,231.149292 C324.020376,225.789763 330.819227,219.624966 336.979565,212.558006 C340.05159,212.200481 343.159451,212 346.303145,212 C355.180418,212 363.810105,213.533681 372,216.043036 C366.132856,222.394948 359.405675,228.135392 351.710952,232.692997 Z M336.918222,91 C338.98926,100.649273 341.312624,115.340835 340.965267,131.546072 C328.892949,133.577498 317.751288,137.066537 307.635314,142 C306.763644,129.910379 303.938905,118.414355 300,107.775752 C313.773059,99.3763337 327.582165,94.0339476 336.918222,91 Z M245.5,66 C252.043355,73.2240143 261.28947,84.6122316 269,98.5892695 C260.343993,105.709341 252.22593,114.118952 245.5,124 C238.77081,114.118952 230.652747,105.709341 222,98.5892695 C229.710531,84.6122316 238.956645,73.2207663 245.5,66 Z M153.061456,91 C162.409249,94.0193899 176.217745,99.3362847 190,107.735199 C186.047687,118.382174 183.21055,129.892773 182.338089,142 C172.229353,137.072065 161.093999,133.587901 149.033705,131.557394 C148.692593,115.356192 151.004941,100.654796 153.061456,91 Z M86,158.072456 C95.0001938,156.147712 108.363619,154 123.221029,154 C124.335748,154 125.440571,154.019673 126.5388,154.042626 C128.421947,165.181222 131.710036,176.503438 137,187.356766 C124.909596,188.228966 113.409531,191.055422 102.77024,195 C94.3768753,181.225127 89.0374416,167.414188 86,158.072456 Z M61,249.501628 C68.1992608,242.954397 79.5713009,233.703583 93.5606632,226 C100.688483,234.664495 109.105481,242.788273 119,249.521173 C109.121718,256.2443 100.714461,264.351791 93.5963829,273 C79.6102685,265.289902 68.21225,256.039088 61,249.501628 Z M123.224327,346 C108.363619,346 94.996896,343.852116 86,341.930497 C89.0374416,332.58146 94.3768753,318.772695 102.77024,305 C113.409531,308.941614 124.909596,311.768296 137,312.640566 C131.710036,323.494762 128.421947,334.817884 126.535502,345.95737 C125.440571,345.980325 124.339045,346 123.224327,346 Z M153.081451,409 C151.010579,399.350727 148.6874,384.662464 149.034731,368.457225 C161.106083,366.4258 172.246854,362.93676 182.362018,358 C183.23362,370.092919 186.058133,381.588943 190,392.227546 C176.228041,400.623666 162.420039,405.966052 153.081451,409 Z M244.50163,434 C237.957821,426.775581 228.711065,415.386726 221,401.412154 C229.653348,394.291683 237.771974,385.881601 244.50163,376 C251.228026,385.881601 259.346652,394.291683 268,401.412154 C260.292196,415.386726 251.045439,426.778829 244.50163,434 Z M336.943081,409 C327.590818,405.959064 313.77572,400.619285 300,392.231973 C303.944358,381.591994 306.776289,370.094483 307.649166,358 C317.762737,362.927504 328.900134,366.413697 340.966195,368.448684 C341.30747,384.639527 339.000579,399.336287 336.943081,409 Z M404,341.943614 C395.043838,343.865232 381.718415,346 366.773891,346 C365.662615,346 364.557933,345.980325 363.463145,345.95737 C361.576943,334.817884 358.289279,323.494762 353,312.640566 C365.08884,311.768296 376.587418,308.941614 387.225333,305 C395.624208,318.782532 400.962951,332.601136 404,341.943614 Z M396.437912,274 C389.313739,265.338162 380.897212,257.210563 371,250.480455 C380.880977,243.756862 389.284515,235.645551 396.405442,227 C410.390774,234.707375 421.784906,243.95883 429,250.496743 C421.797895,257.044428 410.426492,266.295883 396.437912,274 Z" id="Shape-Copy" fill="#FFFFFF" fill-rule="nonzero" style="mix-blend-mode: soft-light;"></path>
            <g id="woman-copy" transform="translate(115.000000, 106.000000)" fill="#364652" stroke="#364652" stroke-width="2">
                <path d="M239.524186,200.477106 L239.74004,200.634235 L239.258737,200.448479 L239.524186,200.477106 Z M201.807768,166.753714 L215.544799,175.585221 L225.47609,181.543996 L234.933674,185.327029 L246.079709,178.442714 L256.162668,178.442714 L258.442903,181.762468 L263.980233,186.369155 C264.224624,183.157962 265.118701,181.442714 266.969697,181.442714 C269.341821,181.442714 270.030303,185.786227 270.030303,195.442714 L270.030303,195.992507 L269.56608,196.287074 C267.56316,197.557999 264.407845,198.919115 260.079229,200.389572 C255.771619,201.852892 251.942922,202.866371 248.589697,203.428931 L248.453911,203.451712 L238.778845,202.408322 L234.588204,199.357783 C222.660908,196.046074 211.394063,193.06443 200.787767,190.412856 C192.177962,188.260405 186.046156,183.463852 181.230303,177.042714 L181.030303,176.776047 L181.030303,176.442714 C181.030303,172.596807 178.374549,162.637729 173.08162,146.758942 L172.991049,146.48723 L173.058053,146.208768 C174.740071,139.218515 174.740071,133.066584 173.075823,127.740989 C171.418973,122.43907 169.210437,118.968512 166.503928,117.292967 L165.953519,116.952219 L170.163532,85.3771214 L171.102747,85.4453415 C173.484917,85.618371 176.288535,86.6697276 179.537323,88.5807797 C182.737611,90.463302 185.802405,92.8470307 188.731745,95.729987 L188.916859,95.9121699 L188.989921,96.161408 C190.102584,99.9570317 191.111042,104.663167 192.017544,110.283482 C192.922392,115.893537 193.592362,121.58828 194.026949,127.360877 C194.95277,138.635864 195.94882,146.936277 197.010884,152.246598 C198.046339,157.423874 199.645386,162.258921 201.807768,166.753714 Z M258.442903,181.762468 L258.521254,181.876539 L258.336518,181.673963 L258.442903,181.762468 Z" id="Combined-Shape"></path>
                <path d="M97.030303,86.4427139 L103.030303,98.4427139 L103.030303,112.442714 C99.4189498,117.599044 96.7522832,122.932378 95.030303,128.442714 C93.3083229,133.95305 94.3083229,139.95305 98.030303,146.442714 C92.6969697,165.776047 89.6969697,177.442714 89.030303,181.442714 C86.030303,185.442714 78.135594,189.916391 68.030303,192.442714 C61.405973,194.098796 52.6546331,194.015273 46.030303,196.442714 C43.4283392,197.396186 40.2312045,199.604253 36.4388989,203.066914 L36.4388989,203.066914 L36.277303,203.215714 L36.2100053,204.442714 L24.8395625,206.442714 C20.2842968,205.889796 15.8050314,204.889796 11.4017664,203.442714 C6.99850132,201.995632 3.55291258,200.328965 1.06500016,198.442714 C-0.355000052,191.109381 -0.355000052,187.442714 1.06500016,187.442714 C2.48500036,187.442714 3.17411811,188.109381 3.1323534,189.442714 L3.1323534,189.442714 L8.30073651,183.442714 L14.5027962,181.442714 L23.461327,180.442714 L37.2436819,185.442714 L37.2385303,185.531609 C44.1334268,185.918784 50.7306844,184.222485 57.030303,180.442714 C63.6969697,176.442714 68.6969697,171.442714 72.030303,165.442714 C72.9590199,162.132463 73.9590199,157.79913 75.030303,152.442714 C76.1015862,147.086298 77.1015862,138.752965 78.030303,127.442714 C78.4633111,119.691397 79.1299778,113.024731 80.030303,107.442714 C81.3807909,99.0696888 83.030303,92.4427139 85.030303,91.4427139 C86.8636364,90.5260473 87.0164141,90.4496584 90.1101641,88.9027834 L90.1101641,88.9027834 L91.030303,88.4427139 C93.6969697,87.1093806 95.6969697,86.4427139 97.030303,86.4427139 L97.030303,86.4427139 Z M15.030303,185.442714 L9.03030303,185.442714 L8.03030303,186.442714 C7.36363636,187.765749 7.03030303,189.099082 7.03030303,190.442714 C7.03030303,191.786346 7.36363636,193.453013 8.03030303,195.442714 C10.030303,196.109381 11.3636364,195.776047 12.030303,194.442714 C14.030303,191.776047 15.3636364,189.442714 16.030303,187.442714 L16.030303,187.442714 L15.030303,185.442714 Z" id="Combined-Shape" stroke-linejoin="round"></path>
                <path d="M36.030303,203.442714 L43.030303,198.442714 C51.3866561,194.849065 59.7199895,194.849065 68.030303,198.442714 C76.3406166,202.036363 82.6739499,206.369696 87.030303,211.442714 L91.030303,203.442714 C105.363636,205.442714 119.69697,206.442714 134.030303,206.442714 C148.363636,206.442714 162.69697,205.442714 177.030303,203.442714 L178.030303,211.442714 C195.35517,203.79677 207.021837,199.463436 213.030303,198.442714 C226.410262,196.169717 235.85118,201.551399 238.030303,203.442714 C240.160521,205.291582 243.030303,208.442714 243.030303,213.442714 C243.030303,218.442714 240.67119,231.689118 238.030303,236.442714 C234.69697,242.442714 230.363636,244.442714 225.030303,242.442714 C222.870746,245.692766 218.204079,248.692766 211.030303,251.442714 C209.010371,252.217021 206.079782,251.994496 203.030303,253.442714 C199.769696,254.991198 194.884567,255.83599 187.030303,260.442714 C182.389581,263.164615 174.389491,270.499039 172.030303,271.442714 C169.671115,272.386389 169.415201,268.585965 167.030303,268.442714 C162.612258,268.177341 157.25575,271.17462 153.030303,271.442714 C146.964955,271.827545 142.473581,269.497766 140.030303,268.442714 C134.966089,266.255894 130.299422,260.589228 126.030303,251.442714 C124.292227,253.204611 122.292227,254.537944 120.030303,255.442714 C117.768379,256.347484 114.768379,257.01415 111.030303,257.442714 L106.030303,255.442714 C96.9460169,252.269461 90.6126836,250.602794 87.030303,250.442714 C76.9477785,249.992172 71.2517933,253.826225 68.030303,253.442714 C63.091891,252.854808 59.091891,251.188141 56.030303,248.442714 C51.0056759,246.807247 47.3390093,245.807247 45.030303,245.442714 C42.7215968,245.078181 40.0549301,245.078181 37.030303,245.442714 C35.9436091,240.807605 34.9436091,237.140938 34.030303,234.442714 C32.4271507,229.706444 27.49635,225.621991 26.030303,222.442714 C23.0381722,215.953964 24.030303,212.680444 24.030303,211.442714 C24.030303,209.080301 28.030303,206.413635 36.030303,203.442714 Z" id="Rectangle"></path>
                <path d="M121.030303,67.4427139 C117.079894,64.9501828 114.413227,62.9501828 113.030303,61.4427139 C109.293963,57.3698824 107.458975,52.5860721 107.030303,50.4427139 C106.363636,47.1093806 106.363636,40.4427139 107.030303,30.4427139 C110.249067,20.8309535 113.5824,13.8309535 117.030303,9.44271394 C122.202157,2.86035455 126.030303,1.44271394 129.030303,0.44271394 C132.030303,-0.55728606 134.811835,0.29326104 138.030303,1.44271394 C140.175948,2.20901587 141.509282,3.20901587 142.030303,4.44271394 C147.196404,5.24761005 150.863071,6.91427672 153.030303,9.44271394 C155.197535,11.9711512 156.530868,15.3044845 157.030303,19.4427139 C161.69697,31.4427139 163.69697,39.7760473 163.030303,44.4427139 C162.640939,47.1682624 162.603359,50.6705064 159.030303,55.4427139 C157.333831,57.7085378 153.333831,61.7085378 147.030303,67.4427139 L121.030303,67.4427139 Z" id="Path-5"></path>
                <path d="M101.030303,85.4427139 C105.883537,83.5405578 109.883537,81.5405578 113.030303,79.4427139 C116.177069,77.3448701 119.177069,74.6782034 122.030303,71.4427139 L122.030303,56.4427139 C121.115821,56.1948988 120.115821,55.5282321 119.030303,54.4427139 C117.944785,53.3571958 116.944785,50.6905291 116.030303,46.4427139 L116.030303,33.4427139 C118.90485,28.221819 121.90485,23.5551523 125.030303,19.4427139 C128.155756,15.3302755 131.48909,11.6636089 135.030303,8.44271394 L146.030303,8.44271394 C147.146785,10.2035588 148.480119,12.2035588 150.030303,14.4427139 C151.580487,16.6818691 152.913821,18.6818691 154.030303,20.4427139 L154.030303,45.4427139 C152.934964,48.9031662 151.934964,51.2364995 151.030303,52.4427139 C150.125642,53.6489284 148.792309,54.9822617 147.030303,56.4427139 L147.030303,71.4427139 C148.014169,74.7290716 150.347503,77.7290716 154.030303,80.4427139 C157.713103,83.1563563 162.046437,84.823023 167.030303,85.4427139 L163.030303,116.442714 C152.382809,116.770481 142.716143,116.770481 134.030303,116.442714 C125.344463,116.114946 116.01113,115.114946 106.030303,113.442714 C106.199,106.545495 105.865667,101.545495 105.030303,98.4427139 C104.194939,95.3399329 102.861606,91.0065995 101.030303,85.4427139 Z" id="Path-4"></path>
                <path d="M103.030303,112.442714 C102.800286,108.740971 102.13362,104.407638 101.030303,99.4427139 C99.9269865,94.4777898 98.5936532,89.8111231 97.030303,85.4427139 L101.030303,85.4427139 C102.604705,89.2296915 103.938038,93.2296915 105.030303,97.4427139 C106.122568,101.655736 106.789235,106.655736 107.030303,112.442714 C115.363636,115.109381 124.030303,116.442714 133.030303,116.442714 C142.030303,116.442714 151.69697,115.776047 162.030303,114.442714 L167.030303,85.4427139 L171.030303,86.4427139 L167.030303,116.442714 C170.422778,119.46653 172.756111,123.799863 174.030303,129.442714 C175.941591,137.90699 174.550964,139.315872 174.030303,144.442714 C172.896347,155.60855 170.030303,158.442714 170.030303,171.442714 C170.030303,179.272847 172.363636,189.939514 177.030303,203.442714 C162.696781,205.442714 148.030114,206.442714 133.030303,206.442714 C118.030492,206.442714 104.030492,205.442714 91.030303,203.442714 C97.6969697,186.331571 101.030303,174.331571 101.030303,167.442714 C101.030303,147.442714 94.030303,142.442714 94.030303,135.442714 C94.030303,125.872461 97.030303,118.205794 103.030303,112.442714 Z" id="Rectangle"></path>
                <path d="M67.030303,254.442714 C64.311079,255.478609 63.311079,256.811942 64.030303,258.442714 L64.030303,261.442714 C62.6969697,263.430197 62.030303,264.76353 62.030303,265.442714 C62.030303,266.121898 62.6969697,266.788565 64.030303,267.442714 C64.2648709,269.097035 64.5982043,270.097035 65.030303,270.442714 C65.4624018,270.788393 67.1290685,270.788393 70.030303,270.442714 C74.030303,269.109381 78.030303,268.442714 82.030303,268.442714 C88.030303,268.442714 85.7712855,271.048294 103.030303,270.442714 C114.536315,270.038994 125.869648,269.038994 137.030303,267.442714 C134.389528,265.056132 132.056195,262.389466 130.030303,259.442714 C128.004411,256.495962 126.671078,253.829296 126.030303,251.442714 C123.052893,253.433678 120.71956,254.767011 119.030303,255.442714 C117.341046,256.118417 114.67438,256.785083 111.030303,257.442714 L99.030303,253.442714 C93.6969697,251.442714 89.030303,250.442714 85.030303,250.442714 C79.030303,250.442714 71.109139,252.888872 67.030303,254.442714 Z" id="Path-6" stroke-linejoin="round"></path>
                <path d="M181.030303,265.442714 C184.059573,265.936171 187.392906,266.269505 191.030303,266.442714 C194.6677,266.615923 198.334366,266.615923 202.030303,266.442714 C202.984829,266.056398 203.651496,265.389731 204.030303,264.442714 C204.40911,263.495696 204.40911,262.495696 204.030303,261.442714 L205.030303,261.442714 L205.030303,258.442714 L205.030303,252.442714 C201.626871,253.477764 197.626871,255.14443 193.030303,257.442714 C188.433736,259.740998 184.433736,262.407664 181.030303,265.442714 Z" id="Path-7" stroke-linejoin="round"></path>
            </g>
        </g>
    </g>
</svg>